{"title":"Yellow Submarine (1968) x264 multisub","uid":5271556,"size":1504912698,"categoryP":"video","categoryS":"movies","magnet":"?xt=urn:btih:a77767878f3c275c56eaf2935cd920e437dabbad&amp;dn=Yellow+Submarine+%281968%29+x264+multisub&amp;tr=udp%3A%2F%2Ftracker.openbittorrent.com%3A80&amp;tr=udp%3A%2F%2Fopen.demonii.com%3A1337&amp;tr=udp%3A%2F%2Ftracker.coppersurfer.tk%3A6969&amp;tr=udp%3A%2F%2Fexodus.desync.com%3A6969","seeders":8,"leechers":2,"uploader":"FatFreddy69","files":-1,"time":1263263814,"description":"Yellow Submarine (1968)\n\nThe Beatles, Animation, Music, Adventure, Comedy, Fantasy \n\nFamily, Psychedelic, John Lennon, Paul Mccartney, Surrealism \n\nThe Beatles agree to accompany Captain Fred in his Yellow Submarine\n\n and go to Pepperland to free it from the music hating Blue Meanies. \n\n &lt;a href=&quot;\nhttp://www.imdb.com/title/tt0063823/&quot; rel=&quot;nofollow&quot; target=&quot;_NEW&quot;&gt;\nhttp://www.imdb.com/title/tt0063823/&lt;/a&gt;\n\n\nFormat                           : Matroska\nFile size                        : 1.40 GiB\nDuration                         : 1h 30mn\nOverall bit rate                 : 2 229 Kbps\n\nVideo\nFormat/Info                      : AVC/Advanced Video Codec\nCodec ID                         : V_MPEG4/ISO/AVC\nNominal bit rate                 : 1 772 Kbps\nWidth                            : 720 pixels\nHeight                           : 384 pixels\nDisplay aspect ratio             : 1.656\nFrame rate                       : 23.976 fps\nStream size                      : 1.09 GiB (78%)\nWriting library                  : x264 core 79\n\nAudio\nFormat/Info                      : AC-3/Audio Coding 3\nBit rate mode                    : Constant\nBit rate                         : 448 Kbps\nChannel(s)                       : 6 channels\nChannel positions                : Front: L C R, Surround: L R, LFE\nSampling rate                    : 48.0 KHz\nStream size                      : 288 MiB (20%)\nLanguage                         : English\n\nSubtitles: \n\nEnglish, French, Spanish, Portuguese, Japanese, Bulgarian, Croatian\n\nCzech, Danish, Dutch, Hungarian, Indonesian, Polish, Romanian, Serbian\n &lt;a href=&quot;\nhttp://i.imagehost.org/0237/Yellow_Submarine_1968_x264_multisub1.jpg&quot; rel=&quot;nofollow&quot; target=&quot;_NEW&quot;&gt;\nhttp://i.imagehost.org/0237/Yellow_Submarine_1968_x264_multisub1.jpg&lt;/a&gt;\n\n &lt;a href=&quot;\nhttp://f.imagehost.org/0462/Yellow_Submarine_1968_x264_multisub2.jpg&quot; rel=&quot;nofollow&quot; target=&quot;_NEW&quot;&gt;\nhttp://f.imagehost.org/0462/Yellow_Submarine_1968_x264_multisub2.jpg&lt;/a&gt;\n\n &lt;a href=&quot;\nhttp://f.imagehost.org/0542/Yellow_Submarine_1968_x264_multisub3.jpg&quot; rel=&quot;nofollow&quot; target=&quot;_NEW&quot;&gt;\nhttp://f.imagehost.org/0542/Yellow_Submarine_1968_x264_multisub3.jpg&lt;/a&gt;\n","torrent":{"xt":"urn:btih:a77767878f3c275c56eaf2935cd920e437dabbad","amp;dn":"Yellow+Submarine+%281968%29+x264+multisub","amp;tr":["udp%3A%2F%2Ftracker.openbittorrent.com%3A80","udp%3A%2F%2Fopen.demonii.com%3A1337","udp%3A%2F%2Ftracker.coppersurfer.tk%3A6969","udp%3A%2F%2Fexodus.desync.com%3A6969"],"infoHash":"a77767878f3c275c56eaf2935cd920e437dabbad","infoHashBuffer":{"type":"Buffer","data":[167,119,103,135,143,60,39,92,86,234,242,147,92,217,32,228,55,218,187,173]},"announce":[],"urlList":[]}}